<mxfile host="app.diagrams.net" modified="2024-07-23T02:52:09.433Z" agent="Mozilla/5.0 (Macintosh; Intel Mac OS X 10_15_7) AppleWebKit/537.36 (KHTML, like Gecko) Chrome/126.0.0.0 Safari/537.36" etag="v5OBonUHUhQ3NSUFXMKN" version="24.7.3" type="github">
  <diagram name="第 1 页" id="D1auboLBeLT5cyUP2mxJ">
    <mxGraphModel dx="954" dy="461" grid="1" gridSize="10" guides="1" tooltips="1" connect="1" arrows="1" fold="1" page="1" pageScale="1" pageWidth="827" pageHeight="1169" math="0" shadow="0">
      <root>
        <mxCell id="0" />
        <mxCell id="1" parent="0" />
        <mxCell id="NwY5k8n8tkFnc-re4lXH-13" style="edgeStyle=orthogonalEdgeStyle;rounded=0;orthogonalLoop=1;jettySize=auto;html=1;exitX=0.5;exitY=1;exitDx=0;exitDy=0;" edge="1" parent="1" source="NwY5k8n8tkFnc-re4lXH-2" target="NwY5k8n8tkFnc-re4lXH-3">
          <mxGeometry relative="1" as="geometry">
            <Array as="points">
              <mxPoint x="407" y="130" />
              <mxPoint x="85" y="130" />
            </Array>
          </mxGeometry>
        </mxCell>
        <mxCell id="NwY5k8n8tkFnc-re4lXH-16" style="edgeStyle=orthogonalEdgeStyle;rounded=0;orthogonalLoop=1;jettySize=auto;html=1;exitX=0.5;exitY=1;exitDx=0;exitDy=0;entryX=0.5;entryY=0;entryDx=0;entryDy=0;" edge="1" parent="1" source="NwY5k8n8tkFnc-re4lXH-2" target="NwY5k8n8tkFnc-re4lXH-5">
          <mxGeometry relative="1" as="geometry" />
        </mxCell>
        <mxCell id="NwY5k8n8tkFnc-re4lXH-17" style="edgeStyle=orthogonalEdgeStyle;rounded=0;orthogonalLoop=1;jettySize=auto;html=1;" edge="1" parent="1" target="NwY5k8n8tkFnc-re4lXH-6">
          <mxGeometry relative="1" as="geometry">
            <mxPoint x="410" y="130" as="sourcePoint" />
          </mxGeometry>
        </mxCell>
        <mxCell id="NwY5k8n8tkFnc-re4lXH-18" style="edgeStyle=orthogonalEdgeStyle;rounded=0;orthogonalLoop=1;jettySize=auto;html=1;exitX=0.5;exitY=1;exitDx=0;exitDy=0;" edge="1" parent="1" source="NwY5k8n8tkFnc-re4lXH-2" target="NwY5k8n8tkFnc-re4lXH-11">
          <mxGeometry relative="1" as="geometry" />
        </mxCell>
        <mxCell id="NwY5k8n8tkFnc-re4lXH-2" value="iwtr" style="rounded=0;whiteSpace=wrap;html=1;" vertex="1" parent="1">
          <mxGeometry x="354" y="50" width="106" height="50" as="geometry" />
        </mxCell>
        <mxCell id="NwY5k8n8tkFnc-re4lXH-19" style="edgeStyle=orthogonalEdgeStyle;rounded=0;orthogonalLoop=1;jettySize=auto;html=1;exitX=0.5;exitY=1;exitDx=0;exitDy=0;" edge="1" parent="1" source="NwY5k8n8tkFnc-re4lXH-3" target="NwY5k8n8tkFnc-re4lXH-7">
          <mxGeometry relative="1" as="geometry" />
        </mxCell>
        <mxCell id="NwY5k8n8tkFnc-re4lXH-3" value="Controller" style="rounded=0;whiteSpace=wrap;html=1;" vertex="1" parent="1">
          <mxGeometry x="30" y="160" width="110" height="50" as="geometry" />
        </mxCell>
        <mxCell id="NwY5k8n8tkFnc-re4lXH-21" style="edgeStyle=orthogonalEdgeStyle;rounded=0;orthogonalLoop=1;jettySize=auto;html=1;exitX=0.5;exitY=1;exitDx=0;exitDy=0;entryX=0.5;entryY=0;entryDx=0;entryDy=0;" edge="1" parent="1" source="NwY5k8n8tkFnc-re4lXH-4" target="NwY5k8n8tkFnc-re4lXH-7">
          <mxGeometry relative="1" as="geometry" />
        </mxCell>
        <mxCell id="NwY5k8n8tkFnc-re4lXH-4" value="service" style="rounded=0;whiteSpace=wrap;html=1;" vertex="1" parent="1">
          <mxGeometry x="190" y="160" width="110" height="50" as="geometry" />
        </mxCell>
        <mxCell id="NwY5k8n8tkFnc-re4lXH-22" style="edgeStyle=orthogonalEdgeStyle;rounded=0;orthogonalLoop=1;jettySize=auto;html=1;exitX=0.5;exitY=1;exitDx=0;exitDy=0;entryX=0.5;entryY=0;entryDx=0;entryDy=0;" edge="1" parent="1" source="NwY5k8n8tkFnc-re4lXH-5" target="NwY5k8n8tkFnc-re4lXH-7">
          <mxGeometry relative="1" as="geometry" />
        </mxCell>
        <mxCell id="NwY5k8n8tkFnc-re4lXH-5" value="dao" style="rounded=0;whiteSpace=wrap;html=1;strokeColor=default;align=center;verticalAlign=middle;fontFamily=Helvetica;fontSize=12;fontColor=default;fillColor=default;" vertex="1" parent="1">
          <mxGeometry x="350.5" y="160" width="113" height="50" as="geometry" />
        </mxCell>
        <mxCell id="NwY5k8n8tkFnc-re4lXH-23" style="edgeStyle=orthogonalEdgeStyle;rounded=0;orthogonalLoop=1;jettySize=auto;html=1;exitX=0.5;exitY=1;exitDx=0;exitDy=0;entryX=0.5;entryY=0;entryDx=0;entryDy=0;" edge="1" parent="1" source="NwY5k8n8tkFnc-re4lXH-6" target="NwY5k8n8tkFnc-re4lXH-7">
          <mxGeometry relative="1" as="geometry" />
        </mxCell>
        <mxCell id="NwY5k8n8tkFnc-re4lXH-6" value="jobs" style="rounded=0;whiteSpace=wrap;html=1;" vertex="1" parent="1">
          <mxGeometry x="510" y="160" width="100" height="50" as="geometry" />
        </mxCell>
        <mxCell id="NwY5k8n8tkFnc-re4lXH-7" value="" style="rounded=0;whiteSpace=wrap;html=1;" vertex="1" parent="1">
          <mxGeometry x="258.5" y="310" width="290" height="90" as="geometry" />
        </mxCell>
        <mxCell id="NwY5k8n8tkFnc-re4lXH-8" value="utils" style="rounded=0;whiteSpace=wrap;html=1;" vertex="1" parent="1">
          <mxGeometry x="280" y="340" width="100" height="40" as="geometry" />
        </mxCell>
        <mxCell id="NwY5k8n8tkFnc-re4lXH-10" value="common" style="rounded=0;whiteSpace=wrap;html=1;" vertex="1" parent="1">
          <mxGeometry x="430" y="340" width="100" height="40" as="geometry" />
        </mxCell>
        <mxCell id="NwY5k8n8tkFnc-re4lXH-25" style="edgeStyle=orthogonalEdgeStyle;rounded=0;orthogonalLoop=1;jettySize=auto;html=1;exitX=0.5;exitY=1;exitDx=0;exitDy=0;entryX=0.5;entryY=0;entryDx=0;entryDy=0;" edge="1" parent="1" source="NwY5k8n8tkFnc-re4lXH-11" target="NwY5k8n8tkFnc-re4lXH-7">
          <mxGeometry relative="1" as="geometry" />
        </mxCell>
        <mxCell id="NwY5k8n8tkFnc-re4lXH-11" value="entity" style="rounded=0;whiteSpace=wrap;html=1;" vertex="1" parent="1">
          <mxGeometry x="670" y="160" width="100" height="50" as="geometry" />
        </mxCell>
        <mxCell id="NwY5k8n8tkFnc-re4lXH-14" style="edgeStyle=orthogonalEdgeStyle;rounded=0;orthogonalLoop=1;jettySize=auto;html=1;exitX=0.5;exitY=1;exitDx=0;exitDy=0;entryX=0.436;entryY=0.04;entryDx=0;entryDy=0;entryPerimeter=0;" edge="1" parent="1" source="NwY5k8n8tkFnc-re4lXH-2" target="NwY5k8n8tkFnc-re4lXH-4">
          <mxGeometry relative="1" as="geometry" />
        </mxCell>
      </root>
    </mxGraphModel>
  </diagram>
</mxfile>
